<svg xmlns="http://www.w3.org/2000/svg">
    <symbol id="right" viewBox="0 0 32 58">
        <path d="M11.11,47.2l12.26,-19.1c0.43,-0.67 0.65,-1.45 0.65,-2.26v-0.68c0,-0.8 -0.23,-1.59 -0.65,-2.26l-12.26,-19.1c-1.2,-1.86 -3.61,-2.36 -5.4,-1.12c-1.79,1.25 -2.27,3.77 -1.07,5.63l11.03,17.19l-11.03,17.19c-1.19,1.86 -0.72,4.38 1.07,5.63c0.66,0.46 1.41,0.69 2.16,0.69c1.25,0 2.49,-0.63 3.24,-1.8z" />
    </symbol>
    <symbol id="left" viewBox="0 0 30 58">
        <path d="M15.88,2.8l-12.22,19.11c-0.43,0.67 -0.65,1.45 -0.65,2.26v0.68c0,0.8 0.23,1.59 0.65,2.26l12.22,19.11c1.19,1.86 3.6,2.36 5.38,1.12c1.78,-1.25 2.26,-3.77 1.07,-5.63l-10.99,-17.19l10.99,-17.19c1.19,-1.86 0.71,-4.38 -1.07,-5.63c-0.66,-0.46 -1.41,-0.69 -2.15,-0.69c-1.25,0 -2.48,0.63 -3.23,1.8z" />
    </symbol>
</svg>